<?xml version="1.0" standalone="no"?>
<!DOCTYPE svg PUBLIC "-//W3C//DTD SVG 20010904//EN"
 "http://www.w3.org/TR/2001/REC-SVG-20010904/DTD/svg10.dtd">
<svg version="1.0" xmlns="http://www.w3.org/2000/svg"
 width="82.000000pt" height="82.000000pt" viewBox="0 0 82.000000 82.000000"
 preserveAspectRatio="xMidYMid meet">
<metadata>
Created by potrace 1.11, written by Peter Selinger 2001-2013
</metadata>
<g transform="translate(0.000000,82.000000) scale(0.100000,-0.100000)"
fill="#000000" stroke="none">
<path d="M275 794 c-63 -23 -85 -28 -140 -33 -30 -2 -65 -48 -65 -85 0 -19
-11 -56 -25 -83 -102 -196 -13 -449 192 -546 63 -30 76 -32 173 -32 98 0 110
2 170 32 251 123 312 442 125 642 -115 123 -275 162 -430 105z m282 -85 c68
-33 120 -85 155 -158 32 -65 33 -205 1 -273 -30 -66 -96 -133 -162 -165 -75
-36 -200 -39 -273 -6 -63 29 -134 96 -166 158 -35 69 -42 188 -15 260 18 49
20 50 56 47 32 -3 43 2 73 32 31 31 36 42 32 71 -4 33 -2 36 37 50 91 33 173
28 262 -16z m-359 -11 c18 -18 15 -43 -8 -63 -17 -15 -24 -16 -45 -7 -25 11
-31 34 -19 66 7 19 55 21 72 4z"/>
<path d="M301 624 c-132 -66 -168 -233 -74 -343 99 -117 273 -112 360 9 18 25
46 59 63 77 37 40 38 56 3 91 -15 15 -38 47 -51 72 -56 110 -187 150 -301 94z
m154 -25 c68 -19 151 -122 116 -143 -16 -10 -19 -45 -5 -71 12 -23 12 -31 0
-53 -54 -105 -215 -124 -298 -36 -95 102 -47 263 90 304 38 12 51 11 97 -1z
m175 -184 c0 -8 -7 -15 -15 -15 -8 0 -15 7 -15 15 0 8 7 15 15 15 8 0 15 -7
15 -15z"/>
<path d="M367 452 c-35 -38 -9 -102 40 -102 47 0 71 71 35 103 -24 22 -55 21
-75 -1z"/>
</g>
</svg>
